<!DOCTYPE svg PUBLIC "-//W3C//DTD SVG 1.1//EN" "http://www.w3.org/Graphics/SVG/1.1/DTD/svg11.dtd">
<!-- Uploaded to: SVG Repo, www.svgrepo.com, Transformed by: SVG Repo Mixer Tools -->
<svg fill="#FD6F00" height="64px" width="64px" version="1.1" id="Layer_1" xmlns="http://www.w3.org/2000/svg" xmlns:xlink="http://www.w3.org/1999/xlink" viewBox="0 0 512 512" xml:space="preserve" stroke="#FD6F00" stroke-width="13.312000000000001">
<g id="SVGRepo_bgCarrier" stroke-width="0"/>
<g id="SVGRepo_tracerCarrier" stroke-linecap="round" stroke-linejoin="round"/>
<g id="SVGRepo_iconCarrier"> <g> <g> <path d="M371.093,0H149.227c-18.773,0-34.133,15.36-34.133,34.133v443.733c0,18.773,15.36,34.133,34.133,34.133h221.867 c18.773,0,34.133-15.36,34.133-34.133V34.133C405.227,15.36,389.867,0,371.093,0z M388.16,477.867 c0,9.387-7.68,17.067-17.067,17.067H149.227c-9.387,0-17.067-7.68-17.067-17.067V34.133c0-9.387,7.68-17.067,17.067-17.067 h221.867c9.387,0,17.067,7.68,17.067,17.067V477.867z"/> </g> </g> <g> <g> <path d="M115.093,51.2v392.533h290.133V51.2H115.093z M388.16,426.667h-256v-358.4h256V426.667z"/> </g> </g> <g> <g> <path d="M294.293,25.6h-42.667c-5.12,0-8.533,3.413-8.533,8.533c0,5.12,3.413,8.533,8.533,8.533h42.667 c5.12,0,8.533-3.413,8.533-8.533C302.827,29.013,299.413,25.6,294.293,25.6z"/> </g> </g> <g> <g> <path d="M226.027,25.6h-8.533c-5.12,0-8.533,3.413-8.533,8.533c0,5.12,3.413,8.533,8.533,8.533h8.533 c5.12,0,8.533-3.413,8.533-8.533C234.56,29.013,231.147,25.6,226.027,25.6z"/> </g> </g> <g> <g> <path d="M115.093,76.8c-5.12,0-8.533,3.413-8.533,8.533v8.533c0,5.12,3.413,8.533,8.533,8.533c5.12,0,8.533-3.413,8.533-8.533 v-8.533C123.627,80.213,120.213,76.8,115.093,76.8z"/> </g> </g> <g> <g> <path d="M115.093,110.933c-5.12,0-8.533,3.413-8.533,8.533V128c0,5.12,3.413,8.533,8.533,8.533c5.12,0,8.533-3.413,8.533-8.533 v-8.533C123.627,114.347,120.213,110.933,115.093,110.933z"/> </g> </g> <g> <g> <path d="M115.093,145.067c-5.12,0-8.533,3.413-8.533,8.533v8.533c0,5.12,3.413,8.533,8.533,8.533c5.12,0,8.533-3.413,8.533-8.533 V153.6C123.627,148.48,120.213,145.067,115.093,145.067z"/> </g> </g> <g> <g> <path d="M260.16,435.2c-18.773,0-34.133,15.36-34.133,34.133c0,18.773,15.36,34.133,34.133,34.133s34.133-15.36,34.133-34.133 C294.293,450.56,278.933,435.2,260.16,435.2z M260.16,486.4c-9.387,0-17.067-7.68-17.067-17.067s7.68-17.067,17.067-17.067 s17.067,7.68,17.067,17.067S269.547,486.4,260.16,486.4z"/> </g> </g> <g> <g> <path d="M191.893,162.133c-5.12,0-8.533,3.413-8.533,8.533v51.2c0,5.12,3.413,8.533,8.533,8.533s8.533-3.413,8.533-8.533v-51.2 C200.427,165.547,197.013,162.133,191.893,162.133z"/> </g> </g> <g> <g> <path d="M217.493,136.533c-18.773,0-34.133,15.36-34.133,34.133c0,5.12,3.413,8.533,8.533,8.533s8.533-3.413,8.533-8.533 c0-9.387,7.68-17.067,17.067-17.067c5.12,0,8.533-3.413,8.533-8.533C226.027,139.947,222.613,136.533,217.493,136.533z"/> </g> </g> <g> <g> <path d="M191.893,213.333c-5.12,0-8.533,3.413-8.533,8.533c0,9.387-7.68,17.067-17.067,17.067c-5.12,0-8.533,3.413-8.533,8.533 s3.413,8.533,8.533,8.533c18.773,0,34.133-15.36,34.133-34.133C200.427,216.747,197.013,213.333,191.893,213.333z"/> </g> </g> <g> <g> <path d="M191.893,264.533c-5.12,0-8.533,3.413-8.533,8.533v51.2c0,5.12,3.413,8.533,8.533,8.533s8.533-3.413,8.533-8.533v-51.2 C200.427,267.947,197.013,264.533,191.893,264.533z"/> </g> </g> <g> <g> <path d="M166.293,238.933c-5.12,0-8.533,3.413-8.533,8.533s3.413,8.533,8.533,8.533c9.387,0,17.067,7.68,17.067,17.067 c0,5.12,3.413,8.533,8.533,8.533s8.533-3.413,8.533-8.533C200.427,254.293,185.067,238.933,166.293,238.933z"/> </g> </g> <g> <g> <path d="M217.493,341.333c-9.387,0-17.067-7.68-17.067-17.067c0-5.12-3.413-8.533-8.533-8.533s-8.533,3.413-8.533,8.533 c0,18.773,15.36,34.133,34.133,34.133c5.12,0,8.533-3.413,8.533-8.533S222.613,341.333,217.493,341.333z"/> </g> </g> <g> <g> <path d="M328.427,162.133c-5.12,0-8.533,3.413-8.533,8.533v51.2c0,5.12,3.413,8.533,8.533,8.533s8.533-3.413,8.533-8.533v-51.2 C336.96,165.547,333.547,162.133,328.427,162.133z"/> </g> </g> <g> <g> <path d="M302.827,136.533c-5.12,0-8.533,3.413-8.533,8.533c0,5.12,3.413,8.533,8.533,8.533c9.387,0,17.067,7.68,17.067,17.067 c0,5.12,3.413,8.533,8.533,8.533s8.533-3.413,8.533-8.533C336.96,151.893,321.6,136.533,302.827,136.533z"/> </g> </g> <g> <g> <path d="M354.027,238.933c-9.387,0-17.067-7.68-17.067-17.067c0-5.12-3.413-8.533-8.533-8.533s-8.533,3.413-8.533,8.533 c0,18.773,15.36,34.133,34.133,34.133c5.12,0,8.533-3.413,8.533-8.533S359.147,238.933,354.027,238.933z"/> </g> </g> <g> <g> <path d="M328.427,264.533c-5.12,0-8.533,3.413-8.533,8.533v51.2c0,5.12,3.413,8.533,8.533,8.533s8.533-3.413,8.533-8.533v-51.2 C336.96,267.947,333.547,264.533,328.427,264.533z"/> </g> </g> <g> <g> <path d="M354.027,238.933c-18.773,0-34.133,15.36-34.133,34.133c0,5.12,3.413,8.533,8.533,8.533s8.533-3.413,8.533-8.533 c0-9.387,7.68-17.067,17.067-17.067c5.12,0,8.533-3.413,8.533-8.533S359.147,238.933,354.027,238.933z"/> </g> </g> <g> <g> <path d="M328.427,315.733c-5.12,0-8.533,3.413-8.533,8.533c0,9.387-7.68,17.067-17.067,17.067c-5.12,0-8.533,3.413-8.533,8.533 s3.413,8.533,8.533,8.533c18.773,0,34.133-15.36,34.133-34.133C336.96,319.147,333.547,315.733,328.427,315.733z"/> </g> </g> <g> <g> <path d="M80.96,34.133c-14.507,0-25.6-11.093-25.6-25.6c0-11.093-17.067-11.093-17.067,0c0,14.507-11.093,25.6-25.6,25.6 C1.6,34.133,1.6,51.2,12.693,51.2c14.507,0,25.6,11.093,25.6,25.6c0,11.093,17.067,11.093,17.067,0 c0-14.507,11.093-25.6,25.6-25.6C92.053,51.2,92.053,34.133,80.96,34.133z M46.827,51.2c-2.56-3.413-5.12-5.973-8.533-8.533 c3.413-2.56,5.973-5.12,8.533-8.533c2.56,3.413,5.12,5.973,8.533,8.533C51.947,45.227,49.387,47.787,46.827,51.2z"/> </g> </g> <g> <g> <path d="M464.96,119.467c-5.12,0-8.533,3.413-8.533,8.533v34.133c0,5.12,3.413,8.533,8.533,8.533s8.533-3.413,8.533-8.533V128 C473.493,122.88,470.08,119.467,464.96,119.467z"/> </g> </g> <g> <g> <path d="M482.027,136.533h-34.133c-5.12,0-8.533,3.413-8.533,8.533c0,5.12,3.413,8.533,8.533,8.533h34.133 c5.12,0,8.533-3.413,8.533-8.533C490.56,139.947,487.147,136.533,482.027,136.533z"/> </g> </g> <g> <g> <path d="M63.893,366.933c-5.12,0-8.533,3.413-8.533,8.533S58.773,384,63.893,384s8.533-3.413,8.533-8.533 S69.013,366.933,63.893,366.933z"/> </g> </g> <g> <g> <path d="M21.227,213.333c-5.12,0-8.533,3.413-8.533,8.533s3.413,8.533,8.533,8.533s8.533-3.413,8.533-8.533 S26.347,213.333,21.227,213.333z"/> </g> </g> <g> <g> <path d="M439.36,298.667c-5.12,0-8.533,3.413-8.533,8.533s3.413,8.533,8.533,8.533s8.533-3.413,8.533-8.533 S444.48,298.667,439.36,298.667z"/> </g> </g> <g> <g> <path d="M499.093,477.867c-5.12,0-8.533,3.413-8.533,8.533s3.413,8.533,8.533,8.533s8.533-3.413,8.533-8.533 S504.213,477.867,499.093,477.867z"/> </g> </g> </g>
</svg>