<svg width="33" height="33" viewBox="0 0 33 33" fill="none" xmlns="http://www.w3.org/2000/svg">
<g clip-path="url(#clip0_1_329)">
<path d="M30.0713 0H2.39759C1.07194 0 0 1.04657 0 2.3405V30.1284C0 31.4223 1.07194 32.4752 2.39759 32.4752H30.0713C31.397 32.4752 32.4752 31.4223 32.4752 30.1347V2.3405C32.4752 1.04657 31.397 0 30.0713 0ZM9.63475 27.6737H4.8142V12.1719H9.63475V27.6737ZM7.22447 10.0597C5.67683 10.0597 4.42729 8.81018 4.42729 7.26887C4.42729 5.72757 5.67683 4.47803 7.22447 4.47803C8.76578 4.47803 10.0153 5.72757 10.0153 7.26887C10.0153 8.80384 8.76578 10.0597 7.22447 10.0597ZM27.6737 27.6737H22.8595V20.1385C22.8595 18.3434 22.8278 16.0283 20.3541 16.0283C17.8487 16.0283 17.4681 17.9882 17.4681 20.0116V27.6737H12.6603V12.1719H17.2778V14.2904H17.3413C17.9819 13.0726 19.5549 11.785 21.8954 11.785C26.7731 11.785 27.6737 14.9944 27.6737 19.168V27.6737Z" fill="white"/>
</g>
<defs>
<clipPath id="clip0_1_329">
<rect width="32.4752" height="32.4752" fill="white"/>
</clipPath>
</defs>
</svg>
