<svg width="33" height="33" viewBox="0 0 33 33" fill="none" xmlns="http://www.w3.org/2000/svg">
<g clip-path="url(#clip0_1_331)">
<path d="M10.2164 29.4305C22.4682 29.4305 29.1713 19.2776 29.1713 10.4756C29.1713 10.1902 29.1649 9.89842 29.1522 9.61299C30.4562 8.66999 31.5815 7.50196 32.4752 6.16377C31.2608 6.70408 29.9715 7.05695 28.6512 7.21033C30.0413 6.37704 31.0822 5.06796 31.5809 3.52579C30.2731 4.30085 28.8429 4.84759 27.3515 5.14257C26.3467 4.07488 25.0181 3.36794 23.5712 3.13106C22.1243 2.89417 20.6396 3.14053 19.3468 3.83204C18.0539 4.52356 17.0249 5.62171 16.4187 6.95672C15.8126 8.29173 15.6631 9.78925 15.9934 11.2177C13.3453 11.0848 10.7546 10.3969 8.38941 9.19858C6.02419 8.00024 3.93721 6.31821 2.26375 4.26156C1.41321 5.72798 1.15295 7.46325 1.53585 9.11468C1.91875 10.7661 2.91609 12.2098 4.32517 13.1523C3.26732 13.1187 2.23264 12.8339 1.30662 12.3214V12.4038C1.30567 13.9427 1.83769 15.4345 2.81223 16.6255C3.78678 17.8165 5.1437 18.6333 6.65235 18.9369C5.67242 19.2051 4.64394 19.2441 3.64649 19.0511C4.0722 20.3746 4.90048 21.5321 6.01573 22.3622C7.13098 23.1923 8.47756 23.6534 9.86753 23.6814C7.50777 25.535 4.59278 26.5404 1.59205 26.5356C1.05989 26.5348 0.528263 26.5022 0 26.438C3.04842 28.3937 6.59455 29.4324 10.2164 29.4305Z" fill="white"/>
</g>
<defs>
<clipPath id="clip0_1_331">
<rect width="32.4752" height="32.4752" fill="white"/>
</clipPath>
</defs>
</svg>
